# xmcd
#
# Track frame offsets:
#	150
#	12301
#	25697
#	47793
#	68621
#	86882
#	102708
#	113920
#	132506
#	150293
#	163600
#	181222
#	199370
#	214854
#	230098
#	249579
#	264711
#	282136
#
# Disc length: 3926 seconds
#
# Revision: 0
# Processed by: cddbd v1.5.2PL0 Copyright (c) Steve Scherf et al.
# Submitted via: audiograbber 1.83.01
#
DISCID=040f5412
DTITLE=Eat n' Run - Driving Me Crazy
DYEAR=2005
DGENRE=Old-Time
TTITLE0=Cumberland Gap
TTITLE1=Tennessee Mountain Fox Chase
TTITLE2=Bob's Farewell - Red Rocking Chair
TTITLE3=Buck Mountain - Shoo Fly
TTITLE4=Polecat Blues
TTITLE5=Old Christmas
TTITLE6=Georgia Horseshoe
TTITLE7=Kiowa Special
TTITLE8=Hell Amongst the Yearlings
TTITLE9=Johnson Gals
TTITLE10=Moses Hoe Your Corn
TTITLE11=Ways of the World
TTITLE12=Laughing Rag
TTITLE13=Mad River
TTITLE14=John Henry
TTITLE15=New Market
TTITLE16=Sandy Boys
TTITLE17=Big Scioty
EXTD=Howie Meltzer: fiddle\nLori Meltzer: banjo\nJack Link: guitar\nRod Backman
EXTD=: bass
EXTT0=
EXTT1=
EXTT2=
EXTT3=
EXTT4=
EXTT5=
EXTT6=
EXTT7=
EXTT8=
EXTT9=
EXTT10=
EXTT11=
EXTT12=
EXTT13=
EXTT14=
EXTT15=
EXTT16=
EXTT17=
PLAYORDER=
